<?xml version="1.0" encoding="UTF-8"?>
<svg version="1.1" xmlns="http://www.w3.org/2000/svg" width="500" height="500">
<path d="M0 0 C165 0 330 0 500 0 C500 165 500 330 500 500 C335 500 170 500 0 500 C0 335 0 170 0 0 Z " fill="#24A9C5" transform="translate(0,0)"/>
<path d="M0 0 C2.5 0.3125 2.5 0.3125 5 1 C6.20761436 3.41522872 6.12829551 4.94152782 6.13061523 7.63891602 C6.13231216 8.59652328 6.13400909 9.55413055 6.13575745 10.54075623 C6.13091843 11.58047073 6.12607941 12.62018524 6.12109375 13.69140625 C6.11679604 15.31279259 6.11679604 15.31279259 6.1124115 16.9669342 C6.05547925 26.93797173 5.65907917 36.88056698 5.20236206 46.83978271 C3.92721338 75.08225304 3.6079479 103.3250738 3.36540985 131.59180927 C3.33514078 135.05987992 3.30178635 138.52791805 3.26823807 141.99595833 C3.24663243 144.40097432 3.23049109 146.80598426 3.21469116 149.21104431 C3.20123349 150.67764509 3.18754425 152.14424377 3.17358398 153.61083984 C3.16407211 154.87439301 3.15456024 156.13794617 3.14476013 157.43978882 C2.74569661 167.25430339 2.74569661 167.25430339 0 170 C-1.32 170 -2.64 170 -4 170 C-5.42594306 167.14811387 -5.08291901 164.77627413 -5.03759766 161.58862305 C-5.02959641 160.92955963 -5.02159515 160.27049622 -5.01335144 159.59146118 C-4.98534596 157.39811185 -4.94985037 155.20495391 -4.9140625 153.01171875 C-4.89226091 151.47305278 -4.87081283 149.93438176 -4.84970093 148.39570618 C-4.80408529 145.15315109 -4.75490763 141.91067522 -4.703125 138.66821289 C-4.63793305 134.57564081 -4.58021822 130.48300808 -4.52496719 126.39029121 C-4.13331202 97.66749098 -4.13331202 97.66749098 -3.39419556 84.28965759 C-2.9225801 75.39086826 -2.72050916 66.48592985 -2.5 57.578125 C-2.46911348 56.34516158 -2.46911348 56.34516158 -2.437603 55.08728981 C-2.24465671 47.38010007 -2.05702528 39.67278736 -1.875 31.96533203 C-1.77419059 27.70705302 -1.66872566 23.44891042 -1.56030273 19.19081879 C-1.52021079 17.57844189 -1.48195191 15.96601834 -1.44555664 14.35355377 C-1.39516229 12.12391579 -1.33889861 9.8944995 -1.28125 7.66503906 C-1.25095703 6.39823303 -1.22066406 5.131427 -1.18945312 3.82623291 C-1 1 -1 1 0 0 Z " fill="#EDF8FA" transform="translate(331,165)"/>
<path d="M0 0 C1.67542976 0.28604898 3.34385343 0.61781233 5 1 C5.72124574 7.99251484 6.19325588 14.90764723 6.1875 21.9375 C6.18737915 23.4534375 6.18737915 23.4534375 6.18725586 25 C6.11092466 36.09453834 5.48860498 47.15900199 4.92269897 58.23660278 C4.29041495 70.8300386 3.89187184 83.41557788 3.71484375 96.0234375 C3.7049901 96.71698082 3.69513645 97.41052414 3.68498421 98.12508392 C3.59765107 104.38182645 3.51787436 110.6386228 3.46414185 116.89575195 C3.33686788 131.56189099 3.01055951 146.18259383 2.09375 160.8203125 C2.01717163 162.11427948 1.94059326 163.40824646 1.86169434 164.74142456 C1.78036255 165.92777496 1.69903076 167.11412537 1.61523438 168.33642578 C1.54510132 169.38468536 1.47496826 170.43294495 1.40270996 171.51296997 C1 174 1 174 -1 176 C-3.125 175.625 -3.125 175.625 -5 175 C-5.02940464 171.04168267 -5.04693328 167.08339403 -5.0625 163.125 C-5.07087891 162.01640625 -5.07925781 160.9078125 -5.08789062 159.765625 C-5.09111328 158.66992188 -5.09433594 157.57421875 -5.09765625 156.4453125 C-5.10289307 155.45031738 -5.10812988 154.45532227 -5.11352539 153.43017578 C-5.02534037 150.76566054 -4.81544413 148.23475878 -4.51147461 145.59375 C-3.83581656 139.1682175 -3.79987769 132.73711495 -3.73963928 126.2828331 C-3.71824514 124.000837 -3.69125493 121.71896267 -3.66296387 119.43704224 C-3.60376989 114.58307763 -3.55146575 109.72905183 -3.5 104.875 C-3.4401931 99.26113525 -3.37738181 93.64732979 -3.30812073 88.03357315 C-3.28211764 85.81617507 -3.26096085 83.59876869 -3.2401123 81.38131714 C-3.14813997 73.10691108 -2.81235223 64.88484283 -2.23976135 56.6293335 C-1.83812171 50.54960378 -1.63545811 44.46424016 -1.4375 38.375 C-1.39431641 37.09407471 -1.35113281 35.81314941 -1.30664062 34.4934082 C-1.02286138 25.45470142 -0.91786433 16.42872292 -1.03686523 7.38623047 C-1.0584271 5.25756071 -1.03450455 3.1284993 -1 1 C-0.67 0.67 -0.34 0.34 0 0 Z " fill="#F1F9FB" transform="translate(314,162)"/>
<path d="M0 0 C1.67542976 0.28604898 3.34385343 0.61781233 5 1 C5.32137117 10.55186519 4.42995361 19.85808334 3.40472412 29.33535767 C2.92285102 33.81799713 2.46917569 38.303482 2.015625 42.7890625 C1.9255014 43.67980972 1.83537781 44.57055695 1.74252319 45.48829651 C-0.57671655 68.59101812 -1.46572905 91.74004239 -2.30322266 114.93481445 C-2.71595408 126.30341951 -3.19893061 137.65134155 -4 149 C-6.375 149.625 -6.375 149.625 -9 150 C-11.88190082 147.11809918 -11.28951194 144.88113716 -11.3293457 140.92431641 C-11.32378662 139.85616699 -11.31822754 138.78801758 -11.3125 137.6875 C-11.30512817 135.94605713 -11.30512817 135.94605713 -11.29760742 134.16943359 C-10.91156292 102.41875827 -8.43701696 70.65830247 -5.4375 39.0625 C-5.33176666 37.94611145 -5.22603333 36.8297229 -5.11709595 35.67950439 C-1.88462683 1.88462683 -1.88462683 1.88462683 0 0 Z " fill="#F2FAFB" transform="translate(185,175)"/>
<path d="M0 0 C0.37868695 11.19590964 -0.68908599 22.08090756 -1.85168457 33.19909668 C-4.83999953 62.0166203 -6.64511463 90.88815805 -8.38745117 119.80249023 C-8.43836946 120.64452153 -8.48928774 121.48655283 -8.541749 122.35410023 C-8.78218865 126.33236487 -9.02022066 130.31073124 -9.25209045 134.289505 C-10.43866914 154.43866914 -10.43866914 154.43866914 -13 157 C-15.625 156.625 -15.625 156.625 -18 156 C-18.28582689 146.4296319 -17.51258157 136.94258464 -16.77319336 127.40991211 C-16.56165951 124.67663988 -16.35752363 121.94288554 -16.15429688 119.20898438 C-16.02126783 117.45569615 -15.88781913 115.7024397 -15.75390625 113.94921875 C-15.66321617 112.73500496 -15.66321617 112.73500496 -15.57069397 111.4962616 C-15.32092614 108.31154879 -15.03493239 105.20238662 -14.49121094 102.05224609 C-13.80474639 97.78674919 -13.61510225 93.52605476 -13.38671875 89.21484375 C-13.27446306 87.23678584 -13.16164663 85.2587597 -13.04833984 83.28076172 C-12.98974792 82.24562439 -12.93115601 81.21048706 -12.87078857 80.14398193 C-11.83464221 62.0174587 -10.47561472 43.9860421 -8.3581543 25.95288086 C-8.23506142 24.90314339 -8.23506142 24.90314339 -8.10948181 23.8321991 C-7.87465437 21.83688309 -7.63804009 19.84177763 -7.40136719 17.84667969 C-6.87119029 12.76549524 -6.58403636 7.6882485 -6.34814453 2.58447266 C-6.17581299 1.30515869 -6.17581299 1.30515869 -6 0 C-3.50907189 -1.24546405 -2.58919267 -0.7767578 0 0 Z " fill="#F3FAFB" transform="translate(172,172)"/>
<path d="M0 0 C3.69230769 0.69230769 3.69230769 0.69230769 5 2 C6.08779037 7.74132883 6.14555716 13.36923244 6.1328125 19.19921875 C6.13376923 20.18831741 6.13472595 21.17741608 6.13571167 22.19648743 C6.13639095 24.29692651 6.13455427 26.39736771 6.13037109 28.49780273 C6.12513941 31.60470761 6.13026105 34.71145971 6.13671875 37.81835938 C6.14039423 48.55876419 5.9569281 59.27200615 5.52734375 70.00390625 C4.81766402 87.84458667 4.66460896 105.69175673 4.46777344 123.54400635 C4.41652985 128.12441885 4.36139425 132.7047846 4.30664062 137.28515625 C4.20073798 146.19006406 4.09895827 155.09501231 4 164 C2.02 164.99 2.02 164.99 0 166 C-2.44284349 163.55715651 -2.23828032 162.24417072 -2.25994873 158.91072083 C-2.25432922 158.20291977 -2.24870972 157.49511871 -2.24291992 156.76586914 C-2.24481827 156.01890778 -2.24671661 155.27194641 -2.24867249 154.50234985 C-2.25239724 152.01318076 -2.24162802 149.52429989 -2.23046875 147.03515625 C-2.22927471 145.28665704 -2.22882426 143.53815719 -2.2290802 141.78965759 C-2.22751093 138.10151208 -2.219206 134.41346299 -2.20581055 130.7253418 C-2.18912859 126.081564 -2.18507078 121.43789433 -2.18563652 116.79409027 C-2.18507378 99.68371339 -2.09971911 82.60517006 -1.34843445 65.50907898 C-0.80620541 52.63390509 -0.92750334 39.75869175 -1 26.875 C-1.02654636 21.9765654 -1.04644515 17.07816627 -1.0625 12.1796875 C-1.07494751 10.50989334 -1.07494751 10.50989334 -1.08764648 8.80636597 C-1.09094971 7.79244781 -1.09425293 6.77852966 -1.09765625 5.73388672 C-1.10551147 4.39377029 -1.10551147 4.39377029 -1.11352539 3.02658081 C-1 1 -1 1 0 0 Z " fill="#F8FCFD" transform="translate(296,167)"/>
<path d="M0 0 C1.67542976 0.28604898 3.34385343 0.61781233 5 1 C4.62623522 23.25655703 3.75001662 45.46259961 2.5 67.6875 C2.43428802 68.86475647 2.36857605 70.04201294 2.3008728 71.25494385 C2.10993268 74.65322158 1.91534108 78.05126358 1.71875 81.44921875 C1.66145218 82.45316177 1.60415436 83.4571048 1.54512024 84.49147034 C1.26742025 89.18089904 0.93343073 93.85399849 0.48413086 98.53027344 C-0.03392208 104.0390871 -0.27543282 109.53777366 -0.46484375 115.06640625 C-0.5432227 117.11785375 -0.62201012 119.16928568 -0.70117188 121.22070312 C-0.82159207 124.41369294 -0.9390299 127.60670036 -1.04956055 130.80004883 C-1.15861305 133.91005591 -1.27951084 137.0194172 -1.40234375 140.12890625 C-1.44777565 141.57095177 -1.44777565 141.57095177 -1.49412537 143.04212952 C-1.53078812 143.92742844 -1.56745087 144.81272736 -1.60522461 145.72485352 C-1.63329697 146.5044191 -1.66136932 147.28398468 -1.69029236 148.08717346 C-2 150 -2 150 -4 152 C-6.625 151.625 -6.625 151.625 -9 151 C-9.14291558 139.90589471 -8.6972409 128.88808459 -8.125 117.8125 C-8.03228135 115.97827694 -7.9396727 114.14404831 -7.84716797 112.30981445 C-7.61381892 107.71365279 -7.37483585 103.11780725 -7.1328125 98.52209473 C-7.01221142 96.23189356 -6.89272378 93.94163711 -6.7734375 91.65136719 C-5.74853753 72.105492 -4.4854686 52.57343501 -3.20916748 33.04263306 C-3.02783974 30.26717501 -2.84846509 27.4916013 -2.67071533 24.71591187 C-2.42013415 20.80763263 -2.16166855 16.89989681 -1.90234375 12.9921875 C-1.78835991 11.19795601 -1.78835991 11.19795601 -1.67207336 9.36747742 C-1.59845078 8.2779628 -1.52482819 7.18844818 -1.44897461 6.06591797 C-1.38616806 5.10781219 -1.32336151 4.14970642 -1.25865173 3.16256714 C-1 1 -1 1 0 0 Z " fill="#F3FAFB" transform="translate(146,174)"/>
<path d="M0 0 C3.53571429 0.53571429 3.53571429 0.53571429 5 2 C5.09721969 6.02063366 4.84891137 10.04490463 4.6875 14.0625 C4.65205078 15.14466797 4.61660156 16.22683594 4.58007812 17.34179688 C4.29678822 24.79612668 3.74225861 32.19601198 3.0859375 39.625 C2.17726443 50.02102983 1.5320098 60.42086242 0.96484375 70.83984375 C0.92247023 71.61530611 0.8800967 72.39076847 0.83643913 73.18972969 C0.48718697 79.59862594 0.14534354 86.00791278 -0.19366455 92.4173584 C-0.44965943 97.25671686 -0.70923394 102.0958528 -0.97427177 106.93472481 C-1.09588166 109.18204966 -1.21207026 111.42961409 -1.32814026 113.67723083 C-1.40214182 115.03475521 -1.47642084 116.39226449 -1.55102539 117.74975586 C-1.61383194 118.9364537 -1.67663849 120.12315155 -1.74134827 121.34580994 C-2 124 -2 124 -3 125 C-5.5 125.125 -5.5 125.125 -8 125 C-9.88565084 123.11434916 -9.16874978 119.90469664 -9.19042969 117.36767578 C-9.16369994 90.63347693 -6.66649035 64.00068623 -4.40917969 37.38134766 C-4.23999576 35.37143934 -4.07104597 33.3615113 -3.90234375 31.3515625 C-3.82049835 30.38546051 -3.73865295 29.41935852 -3.65432739 28.42398071 C-3.27375575 23.81509678 -2.94254083 19.21253309 -2.72705078 14.59277344 C-2.68786026 13.75507416 -2.64866974 12.91737488 -2.60829163 12.05429077 C-2.54059939 10.49413358 -2.48150763 8.93357022 -2.43260193 7.37271118 C-2.21681342 2.21681342 -2.21681342 2.21681342 0 0 Z " fill="#F1F9FB" transform="translate(202,187)"/>
<path d="M0 0 C1.67542976 0.28604898 3.34385343 0.61781233 5 1 C4.94497818 1.90336594 4.88995636 2.80673187 4.83326721 3.73747253 C3.66752035 23.27381091 2.80737119 42.79559273 2.40234375 62.36328125 C2.38200703 63.34338039 2.3616703 64.32347954 2.34071732 65.33327866 C2.19790003 72.32619846 2.06705264 79.31932419 1.9375 86.3125 C1.80409143 93.4379144 1.66647347 100.56321992 1.52136421 107.68840599 C1.46574043 110.50537042 1.41613942 113.32239789 1.3669281 116.13948059 C1.3333487 117.83558682 1.29951457 119.53168804 1.26538086 121.2277832 C1.25341675 122.00605469 1.24145264 122.78432617 1.22912598 123.58618164 C1.11380188 128.88619812 1.11380188 128.88619812 0 130 C-2.5 130.125 -2.5 130.125 -5 130 C-6.73934978 128.26065022 -6.13025124 125.88705065 -6.1328125 123.51953125 C-6.13482666 122.31522461 -6.13684082 121.11091797 -6.13891602 119.87011719 C-6.13479418 118.51757645 -6.13013748 117.16503726 -6.125 115.8125 C-6.12378143 115.12482544 -6.12256287 114.43715088 -6.12130737 113.7286377 C-6.09380901 100.23328786 -5.84719737 86.74204235 -5.5625 73.25 C-5.5429425 72.29179352 -5.52338501 71.33358704 -5.50323486 70.34634399 C-5.11644932 51.77805428 -4.41134216 33.29196155 -2.5 14.8125 C-2.36815136 13.46682997 -2.236641 12.12112676 -2.10546875 10.77539062 C-1.12843714 1.12843714 -1.12843714 1.12843714 0 0 Z " fill="#F7FCFD" transform="translate(125,185)"/>
<path d="M0 0 C0.02367084 9.87025553 0.04118277 19.74050061 0.05181217 29.61077881 C0.05692595 34.19902583 0.06379977 38.78725281 0.07543945 43.37548828 C0.12489283 63.44368808 0.03575655 83.49915584 -0.44140625 103.5625 C-0.46093794 104.43791443 -0.48046963 105.31332886 -0.50059319 106.215271 C-0.55674263 108.66583036 -0.61984 111.11609331 -0.68579102 113.56640625 C-0.70231028 114.2944194 -0.71882954 115.02243256 -0.73584938 115.77250671 C-0.88448072 120.76896145 -0.88448072 120.76896145 -2 123 C-3.66611905 123.042721 -5.33382885 123.04063832 -7 123 C-8.80930194 121.19069806 -8.12864419 118.71080187 -8.13894653 116.30250549 C-8.1369223 115.49240524 -8.13489807 114.68230499 -8.1328125 113.84765625 C-8.13376923 113.00069687 -8.13472595 112.15373749 -8.13571167 111.28111267 C-8.13639537 109.46597216 -8.13452802 107.65082924 -8.13037109 105.83569336 C-8.12518996 103.16058196 -8.13022032 100.48565177 -8.13671875 97.81054688 C-8.1410531 86.91613593 -7.84676727 76.05600949 -7.3901825 65.17167664 C-6.85353587 52.07710234 -6.65134625 38.97810145 -6.4375 25.875 C-6.39413213 23.34374567 -6.35051337 20.81249563 -6.30664062 18.28125 C-6.20155218 12.18754607 -6.09949434 6.09379771 -6 0 C-3.50907189 -1.24546405 -2.58919267 -0.7767578 0 0 Z " fill="#F7FBFC" transform="translate(284,189)"/>
<path d="M0 0 C1.67542976 0.28604898 3.34385343 0.61781233 5 1 C4.62121513 12.34968824 4.22463421 23.69635061 3.5234375 35.03125 C2.1915016 56.83272912 1.62554966 78.60115957 1.34179688 100.44213867 C1.3255275 101.59613159 1.30925812 102.75012451 1.29249573 103.93908691 C1.26257849 106.10147032 1.23636789 108.26390974 1.21470642 110.4263916 C1.12848504 116.66760357 0.73336784 122.80096719 0 129 C-1.875 129.625 -1.875 129.625 -4 130 C-6 128 -6 128 -6.21600342 125.73736572 C-6.19982971 124.79052917 -6.18365601 123.84369263 -6.16699219 122.86816406 C-6.15319519 121.78844833 -6.13939819 120.7087326 -6.12518311 119.59629822 C-6.09934143 118.41467606 -6.07349976 117.23305389 -6.046875 116.015625 C-6.0273175 114.7882814 -6.00776001 113.56093781 -5.98760986 112.29640198 C-5.93128204 108.96901989 -5.86527879 105.64213411 -5.7935791 102.31506729 C-5.75012016 100.2556938 -5.71037958 98.19628199 -5.671875 96.1368103 C-5.35623074 79.35192646 -4.91373986 62.57707627 -4 45.8125 C-3.95838745 45.04820679 -3.9167749 44.28391357 -3.87390137 43.49645996 C-3.49310456 36.67896877 -3.04165571 29.88828662 -2.21875 23.1081543 C-1.68997676 18.01222021 -1.59135625 12.87526252 -1.39453125 7.7578125 C-1.35714844 6.89929688 -1.31976563 6.04078125 -1.28125 5.15625 C-1.23581055 3.99319336 -1.23581055 3.99319336 -1.18945312 2.80664062 C-1 1 -1 1 0 0 Z " fill="#F4FAFC" transform="translate(348,185)"/>
<path d="M0 0 C1.65 0.33 3.3 0.66 5 1 C4.28841748 66.91797431 4.28841748 66.91797431 3.0625 88.5 C3.0249762 89.21161285 2.98745239 89.92322571 2.9487915 90.65640259 C2.3519683 101.6480317 2.3519683 101.6480317 0 104 C-1.32 104 -2.64 104 -4 104 C-4.04633949 91.436631 -3.93200421 78.88787164 -3.6328125 66.328125 C-3.61324368 65.49374657 -3.59367485 64.65936813 -3.57351303 63.79970551 C-3.47019176 59.40839291 -3.36398206 55.01716137 -3.25537109 50.62597656 C-3.14449869 46.11757594 -3.04442819 41.60899891 -2.94656563 37.10029984 C-2.86854229 33.59820908 -2.78242313 30.09635051 -2.6941185 26.59450531 C-2.65359805 24.9312936 -2.61612173 23.26800464 -2.58185196 21.6046524 C-2.53338959 19.28723809 -2.47337833 16.97038634 -2.41064453 14.65332031 C-2.37955597 13.34051086 -2.34846741 12.02770142 -2.31643677 10.67510986 C-1.98386759 6.81263752 -1.18463714 3.67387046 0 0 Z " fill="#F0F9FB" transform="translate(413,198)"/>
<path d="M0 0 C1.67542976 0.28604898 3.34385343 0.61781233 5 1 C5.02989665 4.95831644 5.04708911 8.91660278 5.0625 12.875 C5.07087891 13.96425781 5.07925781 15.05351562 5.08789062 16.17578125 C5.10895032 23.46243594 4.82961539 30.68717294 4.3888092 37.9564209 C3.81976245 47.57948605 3.6513266 57.21173618 3.44775391 66.84814453 C3.24466272 76.26673138 2.95774321 85.62016057 2 95 C0.34385343 95.38218767 -1.32457024 95.71395102 -3 96 C-5.58612731 93.41387269 -4.18952224 86.08449435 -4.18997192 82.39245605 C-4.18915619 81.62357056 -4.18834045 80.85468506 -4.1875 80.0625 C-4.18789276 79.29055298 -4.18828552 78.51860596 -4.18869019 77.7232666 C-4.17961657 62.5529612 -3.6725521 47.40664156 -3.0625 32.25 C-3.01902435 31.15197052 -2.97554871 30.05394104 -2.93075562 28.92263794 C-2.80380352 25.76590426 -2.67092857 22.60949059 -2.53515625 19.453125 C-2.49655487 18.51486374 -2.45795349 17.57660248 -2.41818237 16.60990906 C-1.74759795 1.74759795 -1.74759795 1.74759795 0 0 Z " fill="#F1F9FB" transform="translate(215,202)"/>
<path d="M0 0 C1.66611905 -0.042721 3.33382885 -0.04063832 5 0 C6.59359705 1.59359705 6.12985225 3.23896981 6.1328125 5.44921875 C6.13490723 6.42310547 6.13700195 7.39699219 6.13916016 8.40039062 C6.1344873 9.48513672 6.12981445 10.56988281 6.125 11.6875 C6.12161621 12.82509766 6.11823242 13.96269531 6.11474609 15.13476562 C5.99133183 36.82123529 5.64091883 58.55296877 4.0625 80.1875 C3.98789551 81.25548828 3.91329102 82.32347656 3.83642578 83.42382812 C3.71823486 84.87499023 3.71823486 84.87499023 3.59765625 86.35546875 C3.53070557 87.18715576 3.46375488 88.01884277 3.39477539 88.87573242 C3 91 3 91 1 94 C-0.65 93.67 -2.3 93.34 -4 93 C-4.02749868 91.16675453 -4.04661673 89.3333829 -4.0625 87.5 C-4.07410156 86.4790625 -4.08570313 85.458125 -4.09765625 84.40625 C-4 81 -4 81 -3.51820374 77.26269531 C-3.00857887 73.30642691 -2.77030981 69.37819356 -2.61108398 65.390625 C-2.56697388 64.3208567 -2.56697388 64.3208567 -2.52197266 63.22947693 C-2.42683085 60.90310082 -2.33641917 58.57656764 -2.24609375 56.25 C-2.18055605 54.62474399 -2.11471986 52.99949998 -2.04859924 51.37426758 C-1.87630911 47.11984558 -1.70804615 42.86527371 -1.54064941 38.61065674 C-1.3687459 34.25987039 -1.19299541 29.90923959 -1.01757812 25.55859375 C-0.6746411 17.03920925 -0.33596256 8.51966238 0 0 Z " fill="#F2FAFB" transform="translate(427,203)"/>
<path d="M0 0 C2.125 0.375 2.125 0.375 4 1 C4.02509434 6.6701629 4.04304242 12.34029206 4.05493164 18.01049805 C4.05989853 19.93140223 4.0666743 21.85230276 4.07543945 23.77319336 C4.11976761 33.75224273 4.06600178 43.67684393 3.39334106 53.63546753 C2.79648353 62.60133751 2.6427538 71.58076147 2.4375 80.5625 C2.39414857 82.36393877 2.35053008 84.16537113 2.30664062 85.96679688 C2.20136318 90.31113059 2.09964813 94.65553367 2 99 C0.33388095 99.042721 -1.33382885 99.04063832 -3 99 C-5.62934761 96.37065239 -4.18975764 88.75468202 -4.19024658 84.99279785 C-4.18934021 84.19079956 -4.18843384 83.38880127 -4.1875 82.5625 C-4.18756042 81.75808472 -4.18762085 80.95366943 -4.18768311 80.12487793 C-4.17114199 64.31387558 -3.76073029 48.51368676 -3.25234985 32.7116394 C-3.16731956 30.06649015 -3.08527698 27.4212432 -3.00619507 24.77590942 C-2.89218012 21.03246246 -2.76471498 17.28972939 -2.6328125 13.546875 C-2.59937241 12.40897018 -2.56593231 11.27106537 -2.53147888 10.09867859 C-2.49160355 9.05903458 -2.45172821 8.01939056 -2.41064453 6.94824219 C-2.37955597 6.03693542 -2.34846741 5.12562866 -2.31643677 4.18670654 C-2 2 -2 2 0 0 Z " fill="#F5FBFC" transform="translate(363,200)"/>
<path d="M0 0 C2.125 0.375 2.125 0.375 4 1 C3.85824452 5.3543091 3.71080913 9.70840959 3.5625 14.0625 C3.52318359 15.27228516 3.48386719 16.48207031 3.44335938 17.72851562 C3.23622854 23.73530994 2.96782806 29.72408159 2.53125 35.71875 C1.70090886 47.60945224 1.36868604 59.52707755 0.9375 71.4375 C0.84590603 73.92253353 0.75411078 76.40755965 0.66210938 78.89257812 C0.4390856 84.92830194 0.21854665 90.9641125 0 97 C-1.875 97.625 -1.875 97.625 -4 98 C-6 96 -6 96 -6.24291992 94.09350586 C-6.23881104 93.30854736 -6.23470215 92.52358887 -6.23046875 91.71484375 C-6.22934082 90.80911621 -6.22821289 89.90338867 -6.22705078 88.97021484 C-6.21399902 87.96941895 -6.20094727 86.96862305 -6.1875 85.9375 C-6.17960449 84.88256348 -6.17170898 83.82762695 -6.16357422 82.74072266 C-5.37308606 5.37308606 -5.37308606 5.37308606 0 0 Z " fill="#F2F9FB" transform="translate(109,201)"/>
<path d="M0 0 C1.32 0 2.64 0 4 0 C4.11173079 11.84015291 3.87819711 23.59905657 3.20263672 35.41986084 C2.5496777 46.85944125 1.97137873 58.29398411 1.71484375 69.75 C1.69527115 70.6085257 1.67569855 71.46705139 1.65553284 72.35159302 C1.56506304 76.46719478 1.4891597 80.582565 1.42993164 84.69873047 C1.4013954 86.17155319 1.37267851 87.64437243 1.34375 89.1171875 C1.32505859 90.40222168 1.30636719 91.68725586 1.28710938 93.01123047 C1 96 1 96 -1 98 C-3.125 97.625 -3.125 97.625 -5 97 C-5.12119704 81.7227802 -4.83475003 66.51035046 -4.125 51.25 C-4.05830612 49.76725082 -4.05830612 49.76725082 -3.99026489 48.25454712 C-3.44048715 36.05631514 -2.82094641 23.86656045 -1.9375 11.6875 C-1.85838379 10.58631836 -1.77926758 9.48513672 -1.69775391 8.35058594 C-1.13036594 1.13036594 -1.13036594 1.13036594 0 0 Z " fill="#F7FCFD" transform="translate(397,201)"/>
<path d="M0 0 C1.32 0.66 2.64 1.32 4 2 C4.02505256 6.74649691 4.04302359 11.49295383 4.05493164 16.23950195 C4.05990528 17.84823275 4.06668657 19.45695916 4.07543945 21.06567383 C4.12084454 29.63655257 4.01169701 38.08972146 3.25170898 46.6340332 C2.95163445 50.64676605 2.82105168 54.64994581 2.71875 58.671875 C2.69973129 59.41419876 2.68071259 60.15652252 2.66111755 60.92134094 C2.58562714 63.98490206 2.51551338 67.04856338 2.44775391 70.11230469 C2.39631371 72.38228054 2.33909191 74.65205467 2.28125 76.921875 C2.26767456 77.6196405 2.25409912 78.31740601 2.2401123 79.03631592 C2.11314691 83.88685309 2.11314691 83.88685309 1 85 C-1.5 85.125 -1.5 85.125 -4 85 C-5.802166 83.197834 -5.16653228 80.73097181 -5.18969727 78.32910156 C-5.18897217 77.49862305 -5.18824707 76.66814453 -5.1875 75.8125 C-5.18741943 74.93174805 -5.18733887 74.05099609 -5.18725586 73.14355469 C-5.11352755 64.05712204 -4.45370223 55.02561228 -3.78198242 45.96704102 C-3.28076354 38.98562081 -2.89851519 32.02745801 -2.71484375 25.03125 C-2.69527115 24.29400696 -2.67569855 23.55676392 -2.65553284 22.79718018 C-2.56433293 19.2083488 -2.48891476 15.6197724 -2.42993164 12.03027344 C-2.4014917 10.74668945 -2.37305176 9.46310547 -2.34375 8.140625 C-2.32505859 7.00141602 -2.30636719 5.86220703 -2.28710938 4.68847656 C-2 2 -2 2 0 0 Z " fill="#F3FAFC" transform="translate(263,207)"/>
<path d="M0 0 C1.67542976 0.28604898 3.34385343 0.61781233 5 1 C5.10103286 12.90478016 5.12243151 24.79293985 4.5625 36.6875 C4.52326416 37.55270264 4.48402832 38.41790527 4.44360352 39.30932617 C4.28221082 42.42101454 4.12465341 45.39410963 3.49560547 48.45166016 C2.99721247 51.01433311 2.82809924 53.40447219 2.75390625 56.01171875 C2.72103516 56.93404297 2.68816406 57.85636719 2.65429688 58.80664062 C2.59272974 60.73880079 2.53548879 62.67110332 2.48242188 64.60351562 C2.44826172 65.52197266 2.41410156 66.44042969 2.37890625 67.38671875 C2.3538501 68.22420654 2.32879395 69.06169434 2.30297852 69.92456055 C2 72 2 72 0 74 C-3.53571429 73.46428571 -3.53571429 73.46428571 -5 72 C-5.11606843 69.21550495 -5.16233653 66.46471874 -5.15234375 63.6796875 C-5.15040512 62.82913788 -5.14846649 61.97858826 -5.14646912 61.1022644 C-5.06923464 51.73934164 -4.35055904 42.45021305 -3.5625 33.125 C-3.42572899 31.44276537 -3.28966012 29.7604735 -3.15429688 28.078125 C-2.89461295 24.85794972 -2.62927885 21.63831975 -2.35986328 18.41894531 C-2.12573744 15.59642392 -1.90896265 12.77376019 -1.71435547 9.94824219 C-1.6320166 8.76649414 -1.54967773 7.58474609 -1.46484375 6.3671875 C-1.39773193 5.3447998 -1.33062012 4.32241211 -1.26147461 3.26904297 C-1 1 -1 1 0 0 Z " fill="#F4FAFC" transform="translate(229,213)"/>
<path d="M0 0 C1.65 0 3.3 0 5 0 C5.12541664 18.67357306 4.98370063 37.33057751 4.5625 56 C4.54285187 56.94180115 4.52320374 57.88360229 4.50296021 58.85394287 C4.44615628 61.52778703 4.38249832 64.20137119 4.31640625 66.875 C4.29968872 67.68389679 4.28297119 68.49279358 4.26574707 69.32620239 C4.1150223 74.8849777 4.1150223 74.8849777 3 76 C1.33382885 76.04063832 -0.33388095 76.042721 -2 76 C-2.26951842 50.58441281 -1.67645417 25.36305731 0 0 Z " fill="#EFF9FB" transform="translate(378,212)"/>
<path d="M0 0 C2.0625 0.4375 2.0625 0.4375 4 1 C4.44737745 18.44313188 3.75680889 35.72255369 2.625 53.125 C2.56178558 54.14314789 2.49857117 55.16129578 2.43344116 56.21029663 C2.25022993 59.12280652 2.05342757 62.03404248 1.8515625 64.9453125 C1.79624863 65.83057114 1.74093475 66.71582977 1.6839447 67.62791443 C1.23053554 73.76946446 1.23053554 73.76946446 -1 76 C-3.125 75.625 -3.125 75.625 -5 75 C-6.01429833 70.98995078 -5.94191219 67.66141344 -5.51171875 63.55859375 C-5.3832959 62.26888672 -5.25487305 60.97917969 -5.12255859 59.65039062 C-5.05155945 58.96436768 -4.9805603 58.27834473 -4.90740967 57.5715332 C-3.35148051 42.47258588 -2.36673957 27.37665282 -1.6472168 12.21655273 C-1.59190544 11.09977394 -1.59190544 11.09977394 -1.53547668 9.96043396 C-1.43590164 7.93867139 -1.34250101 5.91660743 -1.24951172 3.89453125 C-1 1 -1 1 0 0 Z " fill="#F6FBFC" transform="translate(443,212)"/>
<path d="M0 0 C1.32 0 2.64 0 4 0 C3.67 21.45 3.34 42.9 3 65 C0.525 65.495 0.525 65.495 -2 66 C-4 64 -4 64 -4.16699219 60.25073242 C-4.13788524 58.61874626 -4.0969548 56.98694602 -4.046875 55.35546875 C-4.0273175 54.48162537 -4.00776001 53.60778198 -3.98760986 52.7074585 C-3.91987468 49.86704623 -3.83589992 47.02741686 -3.75 44.1875 C-3.72421875 43.23158966 -3.6984375 42.27567932 -3.671875 41.290802 C-2.6274601 2.6274601 -2.6274601 2.6274601 0 0 Z " fill="#F6FBFC" transform="translate(246,217)"/>
<path d="M0 0 C2.125 0.375 2.125 0.375 4 1 C4.38056676 19.3940599 3.20799494 37.65678958 2 56 C0.68 56.66 -0.64 57.32 -2 58 C-4.20245588 56.27291779 -4.94239957 55.40662276 -5.34130859 52.59057617 C-5.12444872 43.05264213 -4.5445818 33.55216507 -3.828125 24.03930664 C-3.62258624 21.28009701 -3.43216802 18.52008517 -3.2421875 15.75976562 C-3.11289147 14.0025368 -2.98271638 12.24537239 -2.8515625 10.48828125 C-2.79626373 9.66443436 -2.74096497 8.84058746 -2.68399048 7.99177551 C-2.22893585 2.22893585 -2.22893585 2.22893585 0 0 Z " fill="#F5FBFC" transform="translate(91,221)"/>
<path d="M0 0 C4.875 0.875 4.875 0.875 6 2 C5.95445386 11.71271399 4.97283902 21.38920761 3.625 31 C3.51124023 31.8660083 3.39748047 32.7320166 3.28027344 33.62426758 C3.15942383 34.42888428 3.03857422 35.23350098 2.9140625 36.0625 C2.8104541 36.77535156 2.7068457 37.48820312 2.60009766 38.22265625 C2 40 2 40 -1 42 C-4.51724138 41.48275862 -4.51724138 41.48275862 -6 40 C-5.95001179 30.85215846 -4.81057335 21.73681377 -3.5625 12.6875 C-3.37929199 11.31803223 -3.37929199 11.31803223 -3.19238281 9.92089844 C-3.06831055 9.06399414 -2.94423828 8.20708984 -2.81640625 7.32421875 C-2.70756104 6.56197998 -2.59871582 5.79974121 -2.48657227 5.0144043 C-2 3 -2 3 0 0 Z " fill="#F4FAFC" transform="translate(73,229)"/>
<path d="M0 0 C1.2065625 0.0309375 1.2065625 0.0309375 2.4375 0.0625 C2.70971196 33.49850446 2.70971196 33.49850446 0.4375 46.0625 C-1.22861905 46.105221 -2.89632885 46.10313832 -4.5625 46.0625 C-5.5625 45.0625 -5.5625 45.0625 -5.60009766 42.74023438 C-5.55933105 41.72251953 -5.51856445 40.70480469 -5.4765625 39.65625 C-5.43337891 38.52687012 -5.39019531 37.39749023 -5.34570312 36.23388672 C-5.29349609 35.0223291 -5.24128906 33.81077148 -5.1875 32.5625 C-5.13787109 31.34191895 -5.08824219 30.12133789 -5.03710938 28.86376953 C-4.88693614 25.26293842 -4.72730819 21.66268878 -4.5625 18.0625 C-4.51834961 17.09666992 -4.47419922 16.13083984 -4.42871094 15.13574219 C-4.31477019 12.7358091 -4.1920533 10.33663527 -4.0625 7.9375 C-4.02721191 7.24076172 -3.99192383 6.54402344 -3.95556641 5.82617188 C-3.61725805 0.08822581 -3.61725805 0.08822581 0 0 Z " fill="#EEF8FA" transform="translate(457.5625,226.9375)"/>
<path d="M0 0 C0.66 0 1.32 0 2 0 C2.39910566 11.75144453 1.1823775 23.32244988 0 35 C-1.98 35.495 -1.98 35.495 -4 36 C-4.39095146 27.38458829 -3.79114326 19.20672222 -2.5625 10.6875 C-2.42803467 9.75010986 -2.29356934 8.81271973 -2.1550293 7.84692383 C-1.13875211 1.13875211 -1.13875211 1.13875211 0 0 Z " fill="#F0F9FB" transform="translate(57,232)"/>
<path d="M0 0 C0.66 0 1.32 0 2 0 C2.30470113 9.44573505 1.14169926 18.6421436 0 28 C-0.99 28 -1.98 28 -3 28 C-3.41215558 9.75066661 -3.41215558 9.75066661 -1 1 C-0.67 0.67 -0.34 0.34 0 0 Z " fill="#E5F4F8" transform="translate(43,236)"/>
</svg>
